<?xml version="1.0" encoding="utf-8"?>
<!-- Generator: Adobe Illustrator 16.0.0, SVG Export Plug-In . SVG Version: 6.00 Build 0)  -->
<!DOCTYPE svg PUBLIC "-//W3C//DTD SVG 1.1//EN" "http://www.w3.org/Graphics/SVG/1.1/DTD/svg11.dtd">
<svg version="1.1" id="Layer_1" xmlns="http://www.w3.org/2000/svg" xmlns:xlink="http://www.w3.org/1999/xlink" x="0px" y="0px"
	 width="600px" height="600px" viewBox="0 0 600 600" enable-background="new 0 0 600 600" xml:space="preserve">
<circle fill="none" stroke="#FFFFFF" stroke-width="60" stroke-miterlimit="10" cx="300.385" cy="299.549" r="260.189"/>
<g>
	<g>
		<path fill="#FFFFFF" d="M270,146c0,41.062,0,82.124,0,123.186c0,56.554,0,113.108,0,169.662c0,5.051,0,10.102,0,15.152
			c0,16.354,13.646,30,30,30s30-13.646,30-30c0-41.063,0-82.124,0-123.187c0-56.554,0-113.107,0-169.662c0-5.051,0-10.101,0-15.152
			c0-16.354-13.646-30-30-30S270,129.646,270,146L270,146z"/>
	</g>
</g>
<g>
	<g>
		<path fill="#FFFFFF" d="M454,270c-41.063,0-82.124,0-123.187,0c-56.554,0-113.107,0-169.662,0c-5.051,0-10.101,0-15.152,0
			c-16.354,0-30,13.646-30,30s13.646,30,30,30c41.062,0,82.124,0,123.186,0c56.554,0,113.108,0,169.662,0c5.051,0,10.102,0,15.152,0
			c16.354,0,30-13.646,30-30S470.354,270,454,270L454,270z"/>
	</g>
</g>
</svg>
